<svg id="Layer_1" data-name="Layer 1" xmlns="http://www.w3.org/2000/svg" viewBox="0 0 28 28"><defs><style>.cls-1{fill:#147dc0;}.cls-2{fill:#fff;}</style></defs><title>Desktop_Blue_2</title><circle class="cls-1" cx="14.01" cy="14" r="14"/><path class="cls-2" d="M17.27,18.77H10.75v-.91L14.19,14a8.21,8.21,0,0,0,1.06-1.41,2.35,2.35,0,0,0,.29-1.12,1.78,1.78,0,0,0-.47-1.28,1.65,1.65,0,0,0-1.26-.5,2,2,0,0,0-1.47.54,2.05,2.05,0,0,0-.52,1.49H10.56a2.93,2.93,0,0,1,.89-2.22,3.28,3.28,0,0,1,2.37-.85A3.15,3.15,0,0,1,16,9.4a2.48,2.48,0,0,1,.81,1.94q0,1.47-1.87,3.5l-2.67,2.89h5Z"/></svg>