<svg id="Layer_1" data-name="Layer 1" xmlns="http://www.w3.org/2000/svg" viewBox="0 0 28 28"><defs><style>.cls-1{fill:#147dc0;}.cls-2{fill:#fff;}</style></defs><title>Desktop_Blue_3</title><circle class="cls-1" cx="14" cy="14.01" r="14"/><path class="cls-2" d="M12.76,13.2h1a2.08,2.08,0,0,0,1.41-.47,1.57,1.57,0,0,0,.51-1.24,1.54,1.54,0,0,0-1.74-1.75,1.81,1.81,0,0,0-1.31.47,1.64,1.64,0,0,0-.49,1.24H10.82a2.54,2.54,0,0,1,.86-2,3.15,3.15,0,0,1,2.2-.78,3.12,3.12,0,0,1,2.21.75,2.69,2.69,0,0,1,.8,2.07,2.18,2.18,0,0,1-.42,1.26,2.53,2.53,0,0,1-1.15.91,2.45,2.45,0,0,1,1.27.86A2.4,2.4,0,0,1,17,16a2.71,2.71,0,0,1-.87,2.13,3.28,3.28,0,0,1-2.28.79,3.36,3.36,0,0,1-2.28-.76,2.52,2.52,0,0,1-.88-2H12a1.63,1.63,0,0,0,.51,1.26,2,2,0,0,0,1.37.47,1.91,1.91,0,0,0,1.4-.48A1.84,1.84,0,0,0,15.78,16a1.68,1.68,0,0,0-.53-1.33,2.33,2.33,0,0,0-1.54-.48h-1Z"/></svg>