<svg id="Layer_1" data-name="Layer 1" xmlns="http://www.w3.org/2000/svg" viewBox="0 0 21 21"><defs><style>.cls-1{fill:#777677;}.cls-2{fill:#fff;}</style></defs><title>Mobile_Grey_3</title><circle class="cls-1" cx="10.5" cy="10.59" r="10.5"/><path class="cls-2" d="M9.24,9.76h1a2.08,2.08,0,0,0,1.41-.47A1.57,1.57,0,0,0,12.11,8,1.54,1.54,0,0,0,10.37,6.3a1.81,1.81,0,0,0-1.31.47A1.64,1.64,0,0,0,8.57,8H7.3a2.54,2.54,0,0,1,.86-2,3.15,3.15,0,0,1,2.2-.78A3.12,3.12,0,0,1,12.57,6a2.69,2.69,0,0,1,.8,2.07A2.18,2.18,0,0,1,13,9.33a2.53,2.53,0,0,1-1.15.91,2.45,2.45,0,0,1,1.27.86,2.4,2.4,0,0,1,.45,1.47,2.71,2.71,0,0,1-.87,2.13,3.28,3.28,0,0,1-2.28.79,3.36,3.36,0,0,1-2.28-.76,2.52,2.52,0,0,1-.88-2H8.49A1.63,1.63,0,0,0,9,14a2,2,0,0,0,1.37.47,1.91,1.91,0,0,0,1.4-.48,1.84,1.84,0,0,0,.49-1.37,1.68,1.68,0,0,0-.53-1.33,2.33,2.33,0,0,0-1.54-.48h-1Z"/></svg>