<svg id="Layer_1" data-name="Layer 1" xmlns="http://www.w3.org/2000/svg" viewBox="0 0 21 21"><defs><style>.cls-1{fill:#777677;}.cls-2{fill:#fff;}</style></defs><title>Mobile_Grey_2</title><circle class="cls-1" cx="10.5" cy="10.51" r="10.5"/><path class="cls-2" d="M13.91,15.27H7.39v-.91l3.45-3.83a8.21,8.21,0,0,0,1.06-1.41A2.35,2.35,0,0,0,12.18,8a1.78,1.78,0,0,0-.47-1.28,1.65,1.65,0,0,0-1.26-.5A2,2,0,0,0,9,6.75a2.05,2.05,0,0,0-.52,1.49H7.2A2.93,2.93,0,0,1,8.09,6a3.28,3.28,0,0,1,2.37-.85,3.15,3.15,0,0,1,2.19.73,2.48,2.48,0,0,1,.81,1.94q0,1.47-1.87,3.5L8.92,14.24h5Z"/></svg>