<?xml version="1.0" encoding="UTF-8"?>
<svg width="41px" height="36px" viewBox="0 0 41 36" version="1.1" xmlns="http://www.w3.org/2000/svg" xmlns:xlink="http://www.w3.org/1999/xlink">
    <!-- Generator: Sketch 45.1 (43504) - http://www.bohemiancoding.com/sketch -->
    <title>PayIcon_Blue</title>
    <desc>Created with Sketch.</desc>
    <defs></defs>
    <g id="Symbols" stroke="none" stroke-width="1" fill="none" fill-rule="evenodd">
        <g id="ProgressTracker_FourSteps_Step5" transform="translate(-1001.000000, -21.000000)" fill="#098A00">
            <g id="PayIcon_Blue" transform="translate(1001.000000, 21.000000)">
                <path d="M39.277622,31.9069612 C39.277622,33.1800535 38.2387517,34.2155288 36.9614853,34.2155288 L13.1957338,34.2155288 C11.9184673,34.2155288 10.8795971,33.1800535 10.8795971,31.9069612 L10.8795971,18.0187416 C10.8795971,17.1465863 11.7895319,15.4491299 13.4583054,15.4491299 L36.6989137,15.4491299 C38.0003555,15.4491299 39.277622,16.6700134 39.277622,17.914324 L39.277622,31.9069612 Z M9.20075054,18.0187416 L9.20075054,20.439759 L3.99431167,20.439759 C2.71771677,20.439759 1.67884653,19.4042838 1.67884653,18.1318608 L1.67884653,8.3313253 L30.0768714,8.3313253 L30.0768714,13.7757697 L13.4583054,13.7757697 C10.8205017,13.7757697 9.20075054,16.246988 9.20075054,18.0187416 L9.20075054,18.0187416 Z M4.25755481,1.67336011 L27.4981631,1.67336011 C28.7989334,1.67336011 30.0768714,2.89424364 30.0768714,4.13855422 L30.0768714,4.92503347 L1.67884653,4.92503347 L1.67884653,4.24364123 C1.67884653,3.3708166 2.58878135,1.67336011 4.25755481,1.67336011 L4.25755481,1.67336011 Z M36.6989137,13.7757697 L31.755718,13.7757697 L31.755718,4.13855422 C31.755718,1.97255689 29.7263283,-2.13162821e-14 27.4981631,-2.13162821e-14 L4.25755481,-2.13162821e-14 C1.61975114,-2.13162821e-14 0,2.47121821 0,4.24364123 L0,18.1318608 C0,20.3273092 1.79166502,22.1131191 3.99431167,22.1131191 L9.20075054,22.1131191 L9.20075054,31.9069612 C9.20075054,34.1024096 10.9930871,35.8888889 13.1957338,35.8888889 L36.9614853,35.8888889 C39.1641319,35.8888889 40.9564685,34.1024096 40.9564685,31.9069612 L40.9564685,17.914324 C40.9564685,15.7483266 38.9277503,13.7757697 36.6989137,13.7757697 L36.6989137,13.7757697 Z" id="Fill-1"></path>
                <polygon id="Fill-4" points="14.1023109 30.4551539 17.6654948 30.4551539 17.6654948 28.7817938 14.1023109 28.7817938"></polygon>
                <path d="M19.2315228,24.5716198 L16.4030022,24.5716198 C15.8456251,24.5716198 15.3674896,24.2416332 15.1458819,23.7690763 L16.3089868,23.7690763 L16.3089868,22.1934404 L15.0115742,22.1934404 L15.0115742,21.6157965 L16.3089868,21.6157965 L16.3089868,20.0401606 L15.0538811,20.0401606 C15.2016196,19.4323963 15.748252,18.978581 16.4030022,18.978581 L19.2315228,18.978581 C19.886273,18.978581 20.4329054,19.4323963 20.5806439,20.0401606 L19.3282244,20.0401606 L19.3282244,21.6157965 L20.6229508,21.6157965 L20.6229508,22.1934404 L19.3282244,22.1934404 L19.3282244,23.7690763 L20.4893146,23.7690763 C20.2670354,24.2416332 19.7888999,24.5716198 19.2315228,24.5716198 M22.2037527,23.184739 L22.2037527,20.3654618 C22.2037527,18.731593 20.870077,17.4029451 19.2315228,17.4029451 L16.4030022,17.4029451 C14.764448,17.4029451 13.4307723,18.731593 13.4307723,20.3654618 L13.4307723,23.184739 C13.4307723,24.8179384 14.764448,26.1472557 16.4030022,26.1472557 L19.2315228,26.1472557 C20.870077,26.1472557 22.2037527,24.8179384 22.2037527,23.184739" id="Fill-6"></path>
                <polygon id="Fill-7" points="20.817697 30.4551539 24.3808809 30.4551539 24.3808809 28.7817938 20.817697 28.7817938"></polygon>
                <polygon id="Fill-8" points="26.8615445 30.4551539 30.4247284 30.4551539 30.4247284 28.7817938 26.8615445 28.7817938"></polygon>
                <polygon id="Fill-9" points="32.9053921 30.4551539 36.4679044 30.4551539 36.4679044 28.7817938 32.9053921 28.7817938"></polygon>
            </g>
        </g>
    </g>
</svg>