<?xml version="1.0" encoding="UTF-8"?>
<svg width="36px" height="36px" viewBox="0 0 36 36" version="1.1" xmlns="http://www.w3.org/2000/svg" xmlns:xlink="http://www.w3.org/1999/xlink">
    <!-- Generator: Sketch 45.1 (43504) - http://www.bohemiancoding.com/sketch -->
    <title>Icon_What</title>
    <desc>Created with Sketch.</desc>
    <defs></defs>
    <g id="Symbols" stroke="none" stroke-width="1" fill="none" fill-rule="evenodd">
        <g id="ProgressTracker_FourSteps_Step1" transform="translate(-420.000000, -20.000000)" fill="#666666">
            <g id="Icon_What" transform="translate(420.000000, 20.000000)">
                <path d="M9.42435789,8.50465263 L33.2329895,8.50465263 L26.1978316,1.57938947 L2.66330526,1.57938947 L9.42435789,8.50465263 Z M1.57888421,26.3347579 L8.30267368,33.2214947 L8.30267368,9.6156 L1.57888421,2.72823158 L1.57888421,26.3347579 Z M9.88162105,34.3709684 L34.3710947,34.3709684 L34.3710947,10.0836 L9.88162105,10.0836 L9.88162105,34.3709684 Z M9.09214737,35.9499158 L9.08962105,35.9499158 L9.08835789,35.9499158 L9.08709474,35.9499158 C8.98035789,35.9492842 8.87867368,35.9271789 8.7852,35.8880211 C8.69425263,35.8494947 8.60835789,35.7932842 8.53383158,35.7187579 C8.53383158,35.7187579 8.53383158,35.7187579 8.5332,35.7181263 L8.52562105,35.7111789 L0.224778947,27.2076 C0.223515789,27.2076 0.224778947,27.2057053 0.222884211,27.2063368 C0.222884211,27.2057053 0.222252632,27.2057053 0.222252632,27.2050737 C0.222252632,27.2050737 0.222884211,27.2057053 0.221621053,27.2044421 L0.220989474,27.2038105 C0.220989474,27.2038105 0.220357895,27.2038105 0.220357895,27.2031789 C0.220357895,27.2031789 0.220357895,27.2031789 0.219726316,27.2025474 L0.219726316,27.2025474 L0.219094737,27.2019158 C0.218463158,27.2019158 0.218463158,27.2012842 0.217831579,27.2012842 C0.147726316,27.1273895 0.0946736842,27.0433895 0.0580421053,26.9537053 C0.0220421053,26.8659158 0.00183157895,26.7699158 -6.31578951e-05,26.6694947 L-6.31578951e-05,26.6682316 L-6.31578951e-05,26.6676 L-6.31578951e-05,26.6663368 L-6.31578951e-05,26.6562316 L-6.31578951e-05,0.789915789 L-6.31578951e-05,0.786126316 L-6.31578951e-05,0.785494737 L-6.31578951e-05,0.7836 C0.000568421052,0.676863158 0.0226736842,0.575178947 0.0624631579,0.482336842 C0.100357895,0.390757895 0.156568421,0.306126316 0.231094737,0.2316 L0.231094737,0.230968421 L0.231726316,0.230968421 C0.238042105,0.224652632 0.244989474,0.218336842 0.251305263,0.212021053 C0.320778947,0.1476 0.399094737,0.0970736842 0.482463158,0.0623368421 C0.572778947,0.0238105263 0.672568421,0.00233684211 0.776778947,0.000442105263 C0.776778947,-0.000189473684 0.784357895,0.000442105263 0.789410526,0.000442105263 L0.790042105,0.000442105263 L26.5205684,0.000442105263 L26.5281474,0.000442105263 L26.5287789,0.000442105263 L26.5294105,0.000442105263 L26.5300421,0.000442105263 L26.5306737,0.000442105263 L26.5313053,0.000442105263 C26.6304632,0.00170526316 26.7258316,0.0212842105 26.8123579,0.0560210526 C26.9077263,0.0939157895 26.9967789,0.150757895 27.0744632,0.227178947 L35.7125684,8.72949474 C35.7176211,8.73454737 35.7220421,8.73896842 35.7264632,8.74275789 L35.7264632,8.74338947 L35.7264632,8.74338947 C35.7972,8.81602105 35.8515158,8.89938947 35.8881474,8.98781053 C35.9279368,9.08191579 35.9500421,9.18549474 35.9500421,9.29412632 L35.9500421,35.1604421 C35.9500421,35.5968632 35.5963579,35.9499158 35.1605684,35.9499158 L9.09214737,35.9499158 L9.09214737,35.9499158 L9.09214737,35.9499158 Z" id="Fill-1"></path>
                <path d="M22.1509263,9.85818947 C21.9456632,9.85818947 21.7404,9.77861053 21.5856632,9.62008421 L13.6126105,1.44429474 C13.3081895,1.13229474 13.3145053,0.632715789 13.6265053,0.328294737 C13.9391368,0.0245052632 14.4399789,0.0301894737 14.7431368,0.342189474 L22.7161895,8.51734737 C23.0206105,8.82997895 23.0142947,9.32955789 22.7022947,9.63397895 C22.5488211,9.78366316 22.3492421,9.85818947 22.1509263,9.85818947" id="Fill-4"></path>
                <path d="M18.8374737,27.9737684 L25.7936842,27.9737684 L25.7936842,17.4087158 L18.8374737,17.4087158 L18.8374737,27.9737684 Z M26.0589474,29.5527158 L18.5709474,29.5527158 C17.8477895,29.5527158 17.2585263,28.9634526 17.2585263,28.2396632 L17.2585263,17.1434526 C17.2585263,16.4190316 17.8477895,15.8297684 18.5709474,15.8297684 L26.0589474,15.8297684 C26.7827368,15.8297684 27.3726316,16.4190316 27.3726316,17.1434526 L27.3726316,28.2396632 C27.3726316,28.9634526 26.7827368,29.5527158 26.0589474,29.5527158 L26.0589474,29.5527158 Z" id="Fill-6"></path>
                <path d="M23.9623579,19.878 L20.6686737,19.878 C20.2328842,19.878 19.8792,19.5243158 19.8792,19.0885263 C19.8792,18.6527368 20.2328842,18.2990526 20.6686737,18.2990526 L23.9623579,18.2990526 C24.3981474,18.2990526 24.7518316,18.6527368 24.7518316,19.0885263 C24.7518316,19.5243158 24.3981474,19.878 23.9623579,19.878" id="Fill-8"></path>
                <path d="M23.9623579,22.2100421 L20.6686737,22.2100421 C20.2328842,22.2100421 19.8792,21.8563579 19.8792,21.4205684 C19.8792,20.9847789 20.2328842,20.6310947 20.6686737,20.6310947 L23.9623579,20.6310947 C24.3981474,20.6310947 24.7518316,20.9847789 24.7518316,21.4205684 C24.7518316,21.8563579 24.3981474,22.2100421 23.9623579,22.2100421" id="Fill-9"></path>
                <polygon id="Fill-10" points="20.1884211 26.2438737 24.4427368 26.2438737 24.4427368 24.3232421 20.1884211 24.3232421"></polygon>
            </g>
        </g>
    </g>
</svg>