<?xml version="1.0" encoding="UTF-8"?>
<svg width="44px" height="44px" viewBox="0 0 44 44" version="1.1" xmlns="http://www.w3.org/2000/svg" xmlns:xlink="http://www.w3.org/1999/xlink">
    <!-- Generator: Sketch 51.3 (57544) - http://www.bohemiancoding.com/sketch -->
    <title>Calendar</title>
    <desc>Created with Sketch.</desc>
    <defs></defs>
    <g id="CCOPPD-754-Progress-bar" stroke="none" stroke-width="1" fill="none" fill-rule="evenodd">
        <g id="Desktop_All" transform="translate(-795.000000, -112.000000)">
            <g id="Progress-Bar-1" transform="translate(87.000000, 97.000000)">
                <g id="Calendar" transform="translate(706.000000, 13.000000)">
                    <rect id="Rectangle-2" fill-opacity="0" fill="#FFFFFF" x="0" y="0" width="48" height="48"></rect>
                    <path d="M3,6.56 L3,19.65 L45,19.65 L45,6.56 L3,6.56 Z M13,15.41 C12.0086169,15.4180518 11.1109208,14.825441 10.7287529,13.9106443 C10.3465849,12.9958477 10.555932,11.9407554 11.2584187,11.2411715 C11.9609055,10.5415876 13.0168555,10.3366112 13.9300619,10.7225638 C14.8432682,11.1085165 15.4321568,12.0086588 15.42,13 C15.4090614,14.3303459 14.3303798,15.4045701 13,15.41 Z M34.73,15.41 C33.7386169,15.4180518 32.8409208,14.825441 32.4587529,13.9106443 C32.0765849,12.9958477 32.285932,11.9407554 32.9884187,11.2411715 C33.6909055,10.5415876 34.7468555,10.3366112 35.6600619,10.7225638 C36.5732682,11.1085165 37.1621568,12.0086588 37.15,13 C37.1389976,14.3381433 36.048177,15.4155522 34.71,15.41 L34.73,15.41 Z" id="Shape" fill="#D9D9D9" fill-rule="nonzero"></path>
                    <path d="M3.87,19.65 L45,19.65" id="Shape" stroke="#666666" stroke-width="2" stroke-linecap="round" stroke-linejoin="round"></path>
                    <circle id="Oval" stroke="#666666" stroke-width="2" stroke-linecap="round" stroke-linejoin="round" cx="12.98" cy="12.98" r="2.44"></circle>
                    <circle id="Oval" stroke="#666666" stroke-width="2" stroke-linecap="round" stroke-linejoin="round" cx="34.71" cy="12.98" r="2.44"></circle>
                    <polyline id="Shape" stroke="#666666" stroke-width="2" stroke-linecap="round" stroke-linejoin="round" points="34.66 44.12 3 44.12 3 6.56 45 6.56 45 33.85"></polyline>
                    <polygon id="Shape" stroke="#666666" stroke-width="2" fill="#D9D9D9" fill-rule="nonzero" stroke-linecap="round" stroke-linejoin="round" points="34.66 44.12 34.66 33.85 45 33.85"></polygon>
                    <path d="M12.98,10.54 L12.98,3.88" id="Shape" stroke="#666666" stroke-width="2" stroke-linecap="round" stroke-linejoin="round"></path>
                    <path d="M34.71,10.54 L34.71,3.88" id="Shape" stroke="#666666" stroke-width="2" stroke-linecap="round" stroke-linejoin="round"></path>
                </g>
            </g>
        </g>
    </g>
</svg>