<?xml version="1.0" encoding="UTF-8"?>
<svg width="36px" height="36px" viewBox="0 0 36 36" version="1.1" xmlns="http://www.w3.org/2000/svg" xmlns:xlink="http://www.w3.org/1999/xlink">
    <!-- Generator: Sketch 45.1 (43504) - http://www.bohemiancoding.com/sketch -->
    <title>Icon_When Copy 3</title>
    <desc>Created with Sketch.</desc>
    <defs></defs>
    <g id="Symbols" stroke="none" stroke-width="1" fill="none" fill-rule="evenodd">
        <g id="ProgressTracker_FourSteps_Step3" transform="translate(-799.000000, -22.000000)" fill="#CA261A">
            <g id="Icon_When-Copy-3" transform="translate(799.000000, 22.000000)">
                <path d="M34.4860589,35.1428571 L1.51585669,35.1428571 C0.680028379,35.1428571 0,34.4750085 0,33.6540067 L0,4.06027904 C0,3.23927718 0.680028379,2.57142857 1.51585669,2.57142857 L5.81631784,2.57142857 L5.81631784,4.14062173 L1.59631075,4.14062173 L1.59631075,33.573664 L34.4036893,33.573664 L34.4036893,4.14062173 L28.7527492,4.14062173 L28.7527492,2.57142857 L34.4860589,2.57142857 C35.3206101,2.57142857 36,3.23927718 36,4.06027904 L36,33.6540067 C36,34.4750085 35.3206101,35.1428571 34.4860589,35.1428571" id="Fill-1"></path>
                <polygon id="Fill-4" points="10.2857143 4.28571429 24.8571429 4.28571429 24.8571429 2.57142857 10.2857143 2.57142857"></polygon>
                <path d="M26.3899448,5.36386262 L27.6100552,5.36386262 L27.6100552,1.49387755 L26.3899448,1.49387755 L26.3899448,5.36386262 Z M27.6885346,6.85714286 L26.3120785,6.85714286 C25.5101165,6.85714286 24.8571429,6.22160279 24.8571429,5.44091588 L24.8571429,1.41682429 C24.8571429,0.63554007 25.5101165,0 26.3120785,0 L27.6885346,0 C28.4904966,0 29.1428571,0.63554007 29.1428571,1.41682429 L29.1428571,5.44091588 C29.1428571,6.22160279 28.4904966,6.85714286 27.6885346,6.85714286 L27.6885346,6.85714286 Z" id="Fill-6"></path>
                <path d="M7.53280196,5.36386262 L8.75291232,5.36386262 L8.75291232,1.49387755 L7.53280196,1.49387755 L7.53280196,5.36386262 Z M8.83139178,6.85714286 L7.45493562,6.85714286 C6.65236052,6.85714286 6,6.22160279 6,5.44091588 L6,1.41682429 C6,0.63554007 6.65236052,0 7.45493562,0 L8.83139178,0 C9.63335377,0 10.2857143,0.63554007 10.2857143,1.41682429 L10.2857143,5.44091588 C10.2857143,6.22160279 9.63335377,6.85714286 8.83139178,6.85714286 L8.83139178,6.85714286 Z" id="Fill-7"></path>
                <polygon id="Fill-8" points="0.857142857 12 35.1428571 12 35.1428571 10.2857143 0.857142857 10.2857143"></polygon>
                <path d="M17.2627714,28.2857143 L12.2554088,23.5384191 C11.937678,23.237406 11.9128553,22.7237984 12.2007988,22.3909286 C12.4881218,22.0580588 12.9783704,22.0314032 13.2961012,22.3337166 L16.9487641,25.7963425 L22.5723506,16.6573767 C22.8050636,16.2802977 23.2860038,16.1730252 23.644692,16.4148759 C24.0046214,16.6580269 24.1082563,17.1612324 23.8761639,17.5383114 L17.2627714,28.2857143 Z" id="Fill-9"></path>
            </g>
        </g>
    </g>
</svg>