<?xml version="1.0" encoding="UTF-8"?>
<svg width="36px" height="36px" viewBox="0 0 36 36" version="1.1" xmlns="http://www.w3.org/2000/svg" xmlns:xlink="http://www.w3.org/1999/xlink">
    <!-- Generator: Sketch 45.1 (43504) - http://www.bohemiancoding.com/sketch -->
    <title>Icon_Where Copy 2</title>
    <desc>Created with Sketch.</desc>
    <defs></defs>
    <g id="Symbols" stroke="none" stroke-width="1" fill="none" fill-rule="evenodd">
        <g id="ProgressTracker_FourSteps_Step2" transform="translate(-203.000000, -20.000000)" fill="#CA261A">
            <g id="Icon_Where-Copy-2" transform="translate(203.000000, 20.000000)">
                <path d="M18,35.4613424 C5.63247458,35.4613424 0,32.9218169 0,30.5622915 C0,28.0978169 4.85572881,26.8701559 8.92922034,26.2740203 C9.34779661,26.2148339 9.73342373,26.5016136 9.79444068,26.9183593 C9.85545763,27.3351051 9.56684746,27.7225627 9.15010169,27.7835797 C3.59572881,28.5963254 1.52542373,29.9191729 1.52542373,30.5622915 C1.52542373,31.7075797 7.34033898,33.9359186 18,33.9359186 C28.659661,33.9359186 34.4745763,31.7075797 34.4745763,30.5622915 C34.4745763,29.9185627 32.3993898,28.5932746 26.8315932,27.7805288 C26.4148475,27.7195119 26.1262373,27.3326644 26.1866441,26.9159186 C26.247661,26.4991729 26.6320678,26.2117831 27.0518644,26.2709695 C31.1338983,26.8671051 36,28.0953763 36,30.5622915 C36,32.9218169 30.3675254,35.4613424 18,35.4613424" id="Fill-1"></path>
                <path d="M17.9254983,1.52542373 C13.2729559,1.52542373 9.48868475,6.01016949 9.48868475,11.5230508 C9.48868475,16.8016271 12.8366847,21.5694915 17.4703119,28.1684746 L17.927939,28.8207458 L18.1451593,28.5138305 C22.9148542,21.7696271 26.3617017,16.8968136 26.3617017,11.5230508 C26.3617017,6.01016949 22.5774305,1.52542373 17.9254983,1.52542373 M17.9254983,30.9087458 L17.9236678,30.9087458 C17.6753288,30.9081356 17.4428542,30.7867119 17.3006847,30.5829153 L16.2219051,29.0452881 C11.6078034,22.4743729 7.96326102,17.283661 7.96326102,11.5230508 C7.96326102,5.16935593 12.4321424,0 17.9254983,0 C23.4182441,0 27.8871254,5.16935593 27.8871254,11.5230508 C27.8871254,17.3818983 24.1376339,22.6830508 19.3905153,29.3943051 L18.5484814,30.5853559 C18.4057017,30.7879322 18.1732271,30.9087458 17.9254983,30.9087458" id="Fill-6"></path>
                <path d="M17.9254983,1.52542373 C13.2729559,1.52542373 9.48868475,6.01016949 9.48868475,11.5230508 C9.48868475,16.8016271 12.8366847,21.5694915 17.4703119,28.1684746 L17.927939,28.8207458 L18.1451593,28.5138305 C22.9148542,21.7696271 26.3617017,16.8968136 26.3617017,11.5230508 C26.3617017,6.01016949 22.5774305,1.52542373 17.9254983,1.52542373 L17.9254983,1.52542373 Z M17.9224475,31.4731525 L16.2219051,29.0452881 C11.6078034,22.4743729 7.96326102,17.283661 7.96326102,11.5230508 C7.96326102,5.16935593 12.4321424,0 17.9254983,0 C23.4182441,0 27.8871254,5.16935593 27.8871254,11.5230508 C27.8871254,17.3818983 24.1376339,22.6830508 19.3905153,29.3943051 L17.9224475,31.4731525 Z" id="Fill-3"></path>
                <path d="M17.9254983,7.85385763 C16.3183119,7.85385763 15.0113288,9.16816271 15.0113288,10.7838915 C15.0113288,12.3990102 16.3183119,13.7127051 17.9254983,13.7127051 C19.5320746,13.7127051 20.8390576,12.3990102 20.8390576,10.7838915 C20.8390576,9.16816271 19.5320746,7.85385763 17.9254983,7.85385763 M17.9254983,15.2381288 C15.4774983,15.2381288 13.4859051,13.2398237 13.4859051,10.7838915 C13.4859051,8.32673898 15.4774983,6.3284339 17.9254983,6.3284339 C20.3734983,6.3284339 22.3644814,8.32673898 22.3644814,10.7838915 C22.3644814,13.2398237 20.3734983,15.2381288 17.9254983,15.2381288" id="Fill-9"></path>
            </g>
        </g>
    </g>
</svg>