<?xml version="1.0" encoding="UTF-8"?>
<svg width="36px" height="45px" viewBox="0 0 36 45" version="1.1" xmlns="http://www.w3.org/2000/svg" xmlns:xlink="http://www.w3.org/1999/xlink">
    <!-- Generator: Sketch 52.4 (67378) - http://www.bohemiancoding.com/sketch -->
    <title>Checklist</title>
    <desc>Created with Sketch.</desc>
    <g id="Page-1" stroke="none" stroke-width="1" fill="none" fill-rule="evenodd">
        <g id="Checklist" transform="translate(-6.000000, -2.000000)">
            <rect id="Rectangle" x="0" y="0" width="48" height="48"></rect>
            <g id="Group" transform="translate(8.000000, 3.000000)" stroke="#0467C6" stroke-linejoin="round">
                <polyline id="Shape" stroke-width="2" stroke-linecap="round" points="23.43 23.61 23.43 30.86 8.57 30.86 8.57 16 20.74 16"></polyline>
                <polyline id="Shape" stroke-width="2" stroke-linecap="round" points="12.27 22.11 16.88 26.05 26.64 14.53"></polyline>
                <polyline id="Shape" stroke-width="2.04" stroke-linecap="round" points="9.19 3 0 3 0 42.1 32.56 42.1 32.56 3 23.88 3"></polyline>
                <path d="M10.84,0 L21.67,0 C22.7359096,0 23.6,0.86409043 23.6,1.93 L23.6,6.07 L8.91,6.07 L8.91,1.93 C8.91,0.86409043 9.7740904,0 10.84,0 Z" id="Shape" stroke-width="2" fill="#9BC2E8"></path>
            </g>
        </g>
    </g>
</svg>