<?xml version="1.0" encoding="UTF-8"?>
<svg width="28px" height="44px" viewBox="0 0 28 44" version="1.1" xmlns="http://www.w3.org/2000/svg" xmlns:xlink="http://www.w3.org/1999/xlink">
    <!-- Generator: Sketch 51.3 (57544) - http://www.bohemiancoding.com/sketch -->
    <title>Pin</title>
    <desc>Created with Sketch.</desc>
    <defs></defs>
    <g id="Symbols" stroke="none" stroke-width="1" fill="none" fill-rule="evenodd">
        <g id="Progress-4/4" transform="translate(-132.000000, -15.000000)">
            <g id="Confirmation-State">
                <g id="Pin" transform="translate(122.000000, 13.000000)">
                    <rect id="Rectangle-2" fill-opacity="0" fill="#FFFFFF" x="0" y="0" width="48" height="48"></rect>
                    <path d="M36.89,16.5 C36.89,28.74 24,45 24,45 C24,45 11.11,29 11.11,16.5 C11.11,9 16.88,3 24,3 C31.12,3 36.89,9 36.89,16.5 Z" id="Shape" stroke="#098A00" stroke-width="2" stroke-linejoin="round"></path>
                    <path d="M28.94,18 C28.94,20.7282867 26.7282867,22.94 24,22.94 C21.2717133,22.94 19.06,20.7282867 19.06,18 C19.06,16.235108 20.0015586,14.6042804 21.53,13.7218344 C23.0584413,12.8393884 24.9415587,12.8393884 26.47,13.7218344 C27.9984414,14.6042804 28.94,16.235108 28.94,18 Z" id="Shape" stroke="#098A00" stroke-width="2" fill="#9DD099" fill-rule="nonzero" stroke-linejoin="round"></path>
                </g>
            </g>
        </g>
    </g>
</svg>