<?xml version="1.0" encoding="UTF-8"?>
<svg width="40px" height="40px" viewBox="0 0 40 40" version="1.1" xmlns="http://www.w3.org/2000/svg" xmlns:xlink="http://www.w3.org/1999/xlink">
    <!-- Generator: Sketch 51.3 (57544) - http://www.bohemiancoding.com/sketch -->
    <title>Parcel</title>
    <desc>Created with Sketch.</desc>
    <defs></defs>
    <g id="Symbols" stroke="none" stroke-width="1" fill="none" fill-rule="evenodd">
        <g id="Progress_-0/4" transform="translate(-418.000000, -17.000000)">
            <g id="Progress-Bar-1">
                <g id="Parcel" transform="translate(414.000000, 13.000000)">
                    <g id="Group-2">
                        <rect id="Rectangle-2" fill-opacity="0" fill="#FFFFFF" x="0" y="0" width="48" height="48"></rect>
                        <polygon id="Shape" fill="#D9D9D9" fill-rule="nonzero" points="43 13.59 39.53 5 8.79 5 5 13.59"></polygon>
                        <path d="M5,13.59 L43,13.59" id="Shape" stroke="#666666" stroke-width="2" stroke-linecap="round" stroke-linejoin="round"></path>
                        <path d="M24,5.03 L24,13.59" id="Shape" stroke="#666666" stroke-width="2" stroke-linecap="round" stroke-linejoin="round"></path>
                        <polygon id="Shape" stroke="#666666" stroke-width="2" stroke-linecap="round" stroke-linejoin="round" points="43 13.59 39.53 5 8.79 5 5 13.59 5 43 43 43"></polygon>
                        <rect id="Rectangle-path" fill="#D9D9D9" fill-rule="nonzero" x="15.12" y="13.59" width="17.73" height="5.18"></rect>
                        <rect id="Rectangle-path" stroke="#666666" stroke-width="2" stroke-linejoin="round" x="15.12" y="13.59" width="17.73" height="18.07"></rect>
                        <path d="M20.68,23.4 L27.29,23.4" id="Shape" stroke="#666666" stroke-width="2" stroke-linecap="round" stroke-linejoin="round"></path>
                        <path d="M20.68,26.9 L22.7,26.9" id="Shape" stroke="#666666" stroke-width="2" stroke-linecap="round" stroke-linejoin="round"></path>
                        <path d="M25.44,26.9 L26.25,26.9" id="Shape" stroke="#666666" stroke-width="2" stroke-linecap="round" stroke-linejoin="round"></path>
                        <path d="M15.12,18.77 L32.85,18.77" id="Shape" stroke="#666666" stroke-width="2" stroke-linejoin="round"></path>
                    </g>
                </g>
            </g>
        </g>
    </g>
</svg>