<svg width="232" height="958" viewBox="0 0 232 958" fill="none" xmlns="http://www.w3.org/2000/svg">
<rect width="232" height="958" fill="#F2F2F2"/>
<rect width="231" height="48" transform="translate(0 24)" fill="white"/>
<g clip-path="url(#clip0_1214_86964)">
<path d="M34 58V43L37 38H51L54 43V58H34Z" stroke="#003087" stroke-width="1.5" stroke-linejoin="round"/>
<path d="M34 43H54" stroke="#003087" stroke-width="1.5" stroke-linejoin="round"/>
<path d="M43.25 48C43.25 48.4142 43.5858 48.75 44 48.75C44.4142 48.75 44.75 48.4142 44.75 48H43.25ZM43.25 38V48H44.75V38H43.25Z" fill="#003087"/>
</g>
<path d="M74.016 54.16C70.88 54.16 68.544 51.904 68.544 48.752C68.544 45.616 70.864 43.344 74.016 43.344C77.168 43.344 79.488 45.616 79.488 48.752C79.488 51.888 77.152 54.16 74.016 54.16ZM74.016 52.064C75.824 52.064 77.12 50.736 77.12 48.752C77.12 46.752 75.824 45.44 74.016 45.44C72.208 45.44 70.912 46.768 70.912 48.752C70.912 50.752 72.208 52.064 74.016 52.064ZM83.9673 54.16C82.2553 54.16 80.8793 52.992 80.8793 50.864V46.064H83.1353V50.544C83.1353 51.696 83.7273 52.288 84.6073 52.288C85.5833 52.288 86.2393 51.6 86.2393 50.544V46.064H88.4953V54H86.3033V52.912C85.7753 53.728 84.9593 54.16 83.9673 54.16ZM93.6295 54.16C91.8535 54.16 90.8935 53.232 90.8935 51.52V47.808H89.6935V46.064H90.3335C90.7495 46.064 90.8935 45.904 90.8935 45.44V44.08H93.1015V45.424C93.1015 45.76 93.0535 45.92 92.9255 46.064H95.5175V47.808H93.1015V51.2C93.1015 51.904 93.4055 52.256 94.0455 52.256C94.4775 52.256 94.7975 52.128 95.1815 51.808L95.8375 53.424C95.2455 53.92 94.4935 54.16 93.6295 54.16ZM101.743 54.16C100.639 54.16 99.7429 53.696 99.1189 52.864V54H96.9909V42.96H99.1989V47.248C99.7909 46.384 100.719 45.904 101.743 45.904C103.855 45.904 105.455 47.68 105.455 50.032C105.455 52.368 103.855 54.16 101.743 54.16ZM101.199 52.32C102.383 52.32 103.231 51.36 103.231 50.032C103.231 48.704 102.383 47.744 101.199 47.744C100.015 47.744 99.1669 48.704 99.1669 50.032C99.1669 51.36 100.015 52.32 101.199 52.32ZM110.799 54.16C108.303 54.16 106.511 52.368 106.511 50.032C106.511 47.696 108.303 45.904 110.799 45.904C113.279 45.904 115.071 47.696 115.071 50.032C115.071 52.368 113.279 54.16 110.799 54.16ZM110.799 52.32C111.999 52.32 112.863 51.392 112.863 50.032C112.863 48.688 111.999 47.744 110.799 47.744C109.583 47.744 108.719 48.688 108.719 50.032C108.719 51.392 109.583 52.32 110.799 52.32ZM119.452 54.16C117.74 54.16 116.364 52.992 116.364 50.864V46.064H118.62V50.544C118.62 51.696 119.212 52.288 120.092 52.288C121.068 52.288 121.724 51.6 121.724 50.544V46.064H123.98V54H121.788V52.912C121.26 53.728 120.444 54.16 119.452 54.16ZM128.074 54H125.866V46.064H127.994V47.184C128.538 46.368 129.418 45.904 130.49 45.904C132.314 45.904 133.498 47.2 133.498 49.2V54H131.29V49.488C131.29 48.384 130.762 47.776 129.77 47.776C128.746 47.776 128.074 48.448 128.074 49.504V54ZM138.488 54.16C136.376 54.16 134.792 52.368 134.792 50.032C134.792 47.68 136.376 45.904 138.488 45.904C139.528 45.904 140.44 46.352 141.032 47.184V42.96H143.24V54H141.112V52.8C140.504 53.664 139.576 54.16 138.488 54.16ZM139.032 52.32C140.216 52.32 141.064 51.36 141.064 50.032C141.064 48.704 140.216 47.744 139.032 47.744C137.864 47.744 137 48.704 137 50.032C137 51.36 137.864 52.32 139.032 52.32Z" fill="#003087"/>
<rect y="24" width="3" height="48" fill="#003087"/>
<g clip-path="url(#clip1_1214_86964)">
<path d="M51 114.5H39" stroke="#434343" stroke-width="1.5" stroke-linecap="round" stroke-linejoin="round"/>
<path d="M42.5 118L38.5 114.504L42.5 111" stroke="#434343" stroke-width="1.5" stroke-linecap="round" stroke-linejoin="round"/>
<path d="M34 122V107L37 102H51L54 107V122H34Z" stroke="#434343" stroke-width="1.5" stroke-linejoin="round"/>
<path d="M34 107H54" stroke="#434343" stroke-width="1.5" stroke-linejoin="round"/>
<path d="M44 102V107" stroke="#434343" stroke-width="1.5" stroke-linejoin="round"/>
</g>
<path d="M75.232 114.208L77.696 118H76.112L73.744 114.336C73.472 113.92 73.408 113.824 72.752 113.824H70.64V118H69.296V107.504H73.504C75.664 107.504 77.072 108.768 77.072 110.656C77.072 112.144 76.208 113.2 74.768 113.632C74.96 113.808 75.104 114.016 75.232 114.208ZM70.64 108.736V112.592H73.36C74.848 112.592 75.696 111.92 75.696 110.688C75.696 109.44 74.848 108.736 73.36 108.736H70.64ZM85.5633 113.856C85.5633 114.064 85.5633 114.208 85.5473 114.368H79.4353C79.5473 115.984 80.6193 117.04 82.2352 117.04C83.1473 117.04 83.8673 116.768 84.4913 116.144L85.2113 117.008C84.4593 117.76 83.4193 118.16 82.2193 118.16C79.7873 118.16 78.1073 116.48 78.1073 114.096C78.1073 111.808 79.7713 110.048 81.9473 110.048C84.1873 110.048 85.5633 111.6 85.5633 113.856ZM79.4993 113.312H84.2673C84.1233 111.984 83.2433 111.152 81.9313 111.152C80.6993 111.152 79.7553 112.032 79.4993 113.312ZM90.0766 118.16C88.5886 118.16 87.7566 117.312 87.7566 115.792V111.328H86.4286V110.208H87.2126C87.6286 110.208 87.7566 110.048 87.7566 109.584V108.08H89.0686V109.584C89.0686 109.904 89.0366 110.08 88.9566 110.208H91.7726V111.328H89.0686V115.664C89.0686 116.608 89.3886 117.008 90.2046 117.008C90.7006 117.008 91.0686 116.864 91.5646 116.448L92.1246 117.408C91.4846 117.952 90.8286 118.16 90.0766 118.16ZM96.3914 118.16C94.5514 118.16 93.3674 116.912 93.3674 114.848V110.208H94.6794V114.736C94.6794 116.208 95.3834 117.008 96.6314 117.008C97.9594 117.008 98.9034 116.048 98.9034 114.704V110.208H100.215V118H98.9194V116.8C98.3754 117.712 97.5274 118.16 96.3914 118.16ZM103.729 118H102.417V110.208H103.697V111.552C104.033 110.768 104.785 110.112 106.033 110.112C106.353 110.112 106.577 110.128 106.753 110.176V111.424C106.545 111.36 106.241 111.328 105.985 111.328C104.353 111.328 103.729 112.512 103.729 113.584V118ZM109.447 118H108.135V110.208H109.431V111.328C110.023 110.48 110.903 110.048 112.039 110.048C113.943 110.048 115.047 111.248 115.047 113.344V118H113.735V113.456C113.735 111.968 113.063 111.184 111.783 111.184C110.391 111.184 109.447 112.112 109.447 113.488V118ZM119.855 118.16C118.479 118.16 117.471 117.728 116.607 116.88L117.391 116C118.095 116.704 118.847 117.056 119.855 117.056C121.055 117.056 121.679 116.672 121.679 115.936C121.679 115.296 121.375 115.088 119.919 114.704L119.615 114.624C117.647 114.112 116.847 113.504 116.847 112.272C116.847 110.896 117.999 110.048 119.823 110.048C121.103 110.048 121.999 110.448 122.831 111.232L122.047 112.112C121.359 111.488 120.719 111.136 119.791 111.136C118.751 111.136 118.143 111.552 118.143 112.256C118.143 112.864 118.559 113.12 119.983 113.488L120.286 113.568C122.223 114.08 122.975 114.656 122.975 115.84C122.975 117.248 121.743 118.16 119.855 118.16Z" fill="#434343"/>
<rect y="88" width="3" height="48" fill="#F2F2F2"/>
<rect y="152" width="3" height="48" fill="#F2F2F2"/>
<path d="M36 185.618V169.25C36 169.112 36.1119 169 36.25 169H48.75C48.8881 169 49 169.112 49 169.25V185.618C49 185.798 48.8152 185.919 48.6501 185.847L42.5999 183.21C42.5362 183.182 42.4638 183.182 42.4001 183.21L36.3499 185.847C36.1848 185.919 36 185.798 36 185.618Z" stroke="#434343" stroke-width="1.5" stroke-linecap="round"/>
<path d="M37 166H51.75C51.8881 166 52 166.112 52 166.25V185" stroke="#434343" stroke-width="1.5" stroke-linecap="round"/>
<path d="M70.608 182H69.296V171.504H71.088L74.32 177.92L77.536 171.504H79.312V182H78V173.808C78 173.648 78 173.488 78.016 173.328L77.76 173.824L74.976 179.36H73.632L70.832 173.808C70.752 173.648 70.672 173.472 70.592 173.328C70.608 173.488 70.608 173.664 70.608 173.824V182ZM82.3854 185.2C81.7774 185.2 81.2494 185.072 80.8654 184.864L81.1854 183.744C81.4894 183.936 81.7934 184.064 82.3374 184.064C82.9134 184.064 83.3774 183.76 83.6654 183.008L83.8734 182.464C84.0014 182.144 84.0334 181.872 83.8094 181.328L80.8494 174.208H82.2574L84.5774 180C84.6894 180.272 84.7214 180.384 84.8014 180.592L85.0254 180L87.2174 174.208H88.6094L85.0254 183.024C84.3694 184.624 83.5534 185.2 82.3854 185.2ZM96.0828 182L93.5548 174.208H94.9308L96.6908 180L96.8988 180.704C96.9788 180.432 97.0108 180.272 97.0908 180L98.7228 174.208H100.211L101.907 180L102.115 180.704C102.195 180.432 102.227 180.272 102.307 180L104.003 174.208H105.379L102.867 182H101.299L99.6668 176.56C99.5868 176.304 99.5388 176.128 99.4748 175.872L99.2668 176.56L97.6508 182H96.0828ZM108.731 182.16C107.019 182.16 106.075 181.328 106.075 179.888C106.075 178.592 106.987 177.856 108.923 177.584L110.155 177.408C111.051 177.28 111.339 177.056 111.339 176.512C111.339 175.696 110.635 175.168 109.531 175.168C108.635 175.168 107.819 175.504 107.147 176.16L106.363 175.328C107.179 174.48 108.283 174.048 109.627 174.048C111.483 174.048 112.587 175.008 112.587 176.592V180.144C112.587 180.96 112.715 181.408 113.131 182H111.771C111.483 181.616 111.387 181.328 111.355 180.752C110.763 181.664 109.835 182.16 108.731 182.16ZM108.907 181.056C110.315 181.056 111.339 180.128 111.339 178.8V178.08C111.099 178.256 110.811 178.368 110.347 178.432L109.131 178.608C107.914 178.784 107.371 179.12 107.371 179.84C107.371 180.624 107.899 181.056 108.907 181.056ZM117.577 182.16C116.089 182.16 115.257 181.312 115.257 179.792V175.328H113.929V174.208H114.713C115.129 174.208 115.257 174.048 115.257 173.584V172.08H116.569V173.584C116.569 173.904 116.537 174.08 116.457 174.208H119.273V175.328H116.569V179.664C116.569 180.608 116.889 181.008 117.705 181.008C118.201 181.008 118.569 180.864 119.065 180.448L119.625 181.408C118.985 181.952 118.329 182.16 117.577 182.16ZM124.309 182.16C122.037 182.16 120.357 180.448 120.357 178.096C120.357 175.76 122.037 174.048 124.309 174.048C125.477 174.048 126.501 174.432 127.205 175.168L126.389 176.048C125.781 175.44 125.173 175.184 124.309 175.184C122.773 175.184 121.685 176.4 121.685 178.096C121.685 179.792 122.773 181.024 124.309 181.024C125.205 181.024 125.845 180.752 126.453 180.128L127.237 180.992C126.501 181.76 125.477 182.16 124.309 182.16ZM129.947 182H128.635V170.96H129.947V175.328C130.507 174.512 131.339 174.048 132.539 174.048C134.363 174.048 135.547 175.168 135.547 177.344V182H134.235V177.456C134.235 175.776 133.403 175.184 132.283 175.184C130.891 175.184 129.947 176.112 129.947 177.488V182ZM138.979 182H137.667V170.96H138.979V182ZM141.838 172.688C141.342 172.688 140.974 172.32 140.974 171.824C140.974 171.328 141.342 170.96 141.838 170.96C142.334 170.96 142.702 171.328 142.702 171.824C142.702 172.32 142.334 172.688 141.838 172.688ZM142.494 182H141.182V174.208H142.494V182ZM147.386 182.16C146.01 182.16 145.002 181.728 144.138 180.88L144.922 180C145.626 180.704 146.378 181.056 147.386 181.056C148.586 181.056 149.21 180.672 149.21 179.936C149.21 179.296 148.906 179.088 147.45 178.704L147.146 178.624C145.178 178.112 144.378 177.504 144.378 176.272C144.378 174.896 145.53 174.048 147.354 174.048C148.634 174.048 149.53 174.448 150.362 175.232L149.578 176.112C148.89 175.488 148.25 175.136 147.322 175.136C146.282 175.136 145.674 175.552 145.674 176.256C145.674 176.864 146.09 177.12 147.514 177.488L147.818 177.568C149.754 178.08 150.506 178.656 150.506 179.84C150.506 181.248 149.274 182.16 147.386 182.16ZM154.967 182.16C153.479 182.16 152.647 181.312 152.647 179.792V175.328H151.319V174.208H152.103C152.519 174.208 152.647 174.048 152.647 173.584V172.08H153.959V173.584C153.959 173.904 153.927 174.08 153.847 174.208H156.663V175.328H153.959V179.664C153.959 180.608 154.279 181.008 155.095 181.008C155.591 181.008 155.959 180.864 156.455 180.448L157.015 181.408C156.375 181.952 155.719 182.16 154.967 182.16Z" fill="#434343"/>
<rect x="231" width="1" height="958" fill="#C0C0C0"/>
<defs>
<clipPath id="clip0_1214_86964">
<rect width="24" height="24" fill="white" transform="translate(32 36)"/>
</clipPath>
<clipPath id="clip1_1214_86964">
<rect width="24" height="24" fill="white" transform="translate(32 100)"/>
</clipPath>
</defs>
</svg>
